<svg width="33" height="32" viewBox="0 0 33 32" fill="none" xmlns="http://www.w3.org/2000/svg">
<mask id="path-1-inside-1_1217_19372" fill="white">
<path d="M11.3372 3.9834H7.33724C6.45318 3.9834 5.60534 4.33313 4.98022 4.95565C4.3551 5.57817 4.00391 6.42249 4.00391 7.30287C4.00391 8.18325 4.3551 9.02757 4.98022 9.65009C5.60534 10.2726 6.45318 10.6223 7.33724 10.6223H11.3372C12.2213 10.6223 13.0691 10.2726 13.6943 9.65009C14.3194 9.02757 14.6706 8.18325 14.6706 7.30287C14.6706 6.42249 14.3194 5.57817 13.6943 4.95565C13.0691 4.33313 12.2213 3.9834 11.3372 3.9834ZM11.3372 9.29456H7.33724C6.80681 9.29456 6.2981 9.08472 5.92303 8.71121C5.54795 8.33769 5.33724 7.8311 5.33724 7.30287C5.33724 6.77464 5.54795 6.26805 5.92303 5.89454C6.2981 5.52103 6.80681 5.31119 7.33724 5.31119H11.3372C11.8677 5.31119 12.3764 5.52103 12.7515 5.89454C13.1265 6.26805 13.3372 6.77464 13.3372 7.30287C13.3372 7.8311 13.1265 8.33769 12.7515 8.71121C12.3764 9.08472 11.8677 9.29456 11.3372 9.29456ZM11.3372 13.2779H7.33724C6.45318 13.2779 5.60534 13.6277 4.98022 14.2502C4.3551 14.8727 4.00391 15.717 4.00391 16.5974V24.5641C4.00391 25.4445 4.3551 26.2888 4.98022 26.9114C5.60534 27.5339 6.45318 27.8836 7.33724 27.8836H11.3372C12.2213 27.8836 13.0691 27.5339 13.6943 26.9114C14.3194 26.2888 14.6706 25.4445 14.6706 24.5641V16.5974C14.6706 15.717 14.3194 14.8727 13.6943 14.2502C13.0691 13.6277 12.2213 13.2779 11.3372 13.2779ZM13.3372 24.5641C13.3372 25.0924 13.1265 25.599 12.7515 25.9725C12.3764 26.346 11.8677 26.5558 11.3372 26.5558H7.33724C6.80681 26.5558 6.2981 26.346 5.92303 25.9725C5.54795 25.599 5.33724 25.0924 5.33724 24.5641V16.5974C5.33724 16.0692 5.54795 15.5626 5.92303 15.1891C6.2981 14.8155 6.80681 14.6057 7.33724 14.6057H11.3372C11.8677 14.6057 12.3764 14.8155 12.7515 15.1891C13.1265 15.5626 13.3372 16.0692 13.3372 16.5974V24.5641ZM24.6706 21.2447H20.6706C19.7865 21.2447 18.9387 21.5944 18.3136 22.2169C17.6884 22.8394 17.3372 23.6838 17.3372 24.5641C17.3372 25.4445 17.6884 26.2888 18.3136 26.9114C18.9387 27.5339 19.7865 27.8836 20.6706 27.8836H24.6706C25.5546 27.8836 26.4025 27.5339 27.0276 26.9114C27.6527 26.2888 28.0039 25.4445 28.0039 24.5641C28.0039 23.6838 27.6527 22.8394 27.0276 22.2169C26.4025 21.5944 25.5546 21.2447 24.6706 21.2447ZM24.6706 26.5558H20.6706C20.1401 26.5558 19.6314 26.346 19.2564 25.9725C18.8813 25.599 18.6706 25.0924 18.6706 24.5641C18.6706 24.0359 18.8813 23.5293 19.2564 23.1558C19.6314 22.7823 20.1401 22.5724 20.6706 22.5724H24.6706C25.201 22.5724 25.7097 22.7823 26.0848 23.1558C26.4599 23.5293 26.6706 24.0359 26.6706 24.5641C26.6706 25.0924 26.4599 25.599 26.0848 25.9725C25.7097 26.346 25.201 26.5558 24.6706 26.5558ZM24.6706 3.9834H20.6706C19.7865 3.9834 18.9387 4.33313 18.3136 4.95565C17.6884 5.57817 17.3372 6.42249 17.3372 7.30287V15.2696C17.3372 16.15 17.6884 16.9943 18.3136 17.6168C18.9387 18.2394 19.7865 18.5891 20.6706 18.5891H24.6706C25.5546 18.5891 26.4025 18.2394 27.0276 17.6168C27.6527 16.9943 28.0039 16.15 28.0039 15.2696V7.30287C28.0039 6.42249 27.6527 5.57817 27.0276 4.95565C26.4025 4.33313 25.5546 3.9834 24.6706 3.9834ZM26.6706 15.2696C26.6706 15.7978 26.4599 16.3044 26.0848 16.6779C25.7097 17.0515 25.201 17.2613 24.6706 17.2613H20.6706C20.1401 17.2613 19.6314 17.0515 19.2564 16.6779C18.8813 16.3044 18.6706 15.7978 18.6706 15.2696V7.30287C18.6706 6.77464 18.8813 6.26805 19.2564 5.89454C19.6314 5.52103 20.1401 5.31119 20.6706 5.31119H24.6706C25.201 5.31119 25.7097 5.52103 26.0848 5.89454C26.4599 6.26805 26.6706 6.77464 26.6706 7.30287V15.2696Z"/>
</mask>
<path d="M11.3372 3.9834H7.33724C6.45318 3.9834 5.60534 4.33313 4.98022 4.95565C4.3551 5.57817 4.00391 6.42249 4.00391 7.30287C4.00391 8.18325 4.3551 9.02757 4.98022 9.65009C5.60534 10.2726 6.45318 10.6223 7.33724 10.6223H11.3372C12.2213 10.6223 13.0691 10.2726 13.6943 9.65009C14.3194 9.02757 14.6706 8.18325 14.6706 7.30287C14.6706 6.42249 14.3194 5.57817 13.6943 4.95565C13.0691 4.33313 12.2213 3.9834 11.3372 3.9834ZM11.3372 9.29456H7.33724C6.80681 9.29456 6.2981 9.08472 5.92303 8.71121C5.54795 8.33769 5.33724 7.8311 5.33724 7.30287C5.33724 6.77464 5.54795 6.26805 5.92303 5.89454C6.2981 5.52103 6.80681 5.31119 7.33724 5.31119H11.3372C11.8677 5.31119 12.3764 5.52103 12.7515 5.89454C13.1265 6.26805 13.3372 6.77464 13.3372 7.30287C13.3372 7.8311 13.1265 8.33769 12.7515 8.71121C12.3764 9.08472 11.8677 9.29456 11.3372 9.29456ZM11.3372 13.2779H7.33724C6.45318 13.2779 5.60534 13.6277 4.98022 14.2502C4.3551 14.8727 4.00391 15.717 4.00391 16.5974V24.5641C4.00391 25.4445 4.3551 26.2888 4.98022 26.9114C5.60534 27.5339 6.45318 27.8836 7.33724 27.8836H11.3372C12.2213 27.8836 13.0691 27.5339 13.6943 26.9114C14.3194 26.2888 14.6706 25.4445 14.6706 24.5641V16.5974C14.6706 15.717 14.3194 14.8727 13.6943 14.2502C13.0691 13.6277 12.2213 13.2779 11.3372 13.2779ZM13.3372 24.5641C13.3372 25.0924 13.1265 25.599 12.7515 25.9725C12.3764 26.346 11.8677 26.5558 11.3372 26.5558H7.33724C6.80681 26.5558 6.2981 26.346 5.92303 25.9725C5.54795 25.599 5.33724 25.0924 5.33724 24.5641V16.5974C5.33724 16.0692 5.54795 15.5626 5.92303 15.1891C6.2981 14.8155 6.80681 14.6057 7.33724 14.6057H11.3372C11.8677 14.6057 12.3764 14.8155 12.7515 15.1891C13.1265 15.5626 13.3372 16.0692 13.3372 16.5974V24.5641ZM24.6706 21.2447H20.6706C19.7865 21.2447 18.9387 21.5944 18.3136 22.2169C17.6884 22.8394 17.3372 23.6838 17.3372 24.5641C17.3372 25.4445 17.6884 26.2888 18.3136 26.9114C18.9387 27.5339 19.7865 27.8836 20.6706 27.8836H24.6706C25.5546 27.8836 26.4025 27.5339 27.0276 26.9114C27.6527 26.2888 28.0039 25.4445 28.0039 24.5641C28.0039 23.6838 27.6527 22.8394 27.0276 22.2169C26.4025 21.5944 25.5546 21.2447 24.6706 21.2447ZM24.6706 26.5558H20.6706C20.1401 26.5558 19.6314 26.346 19.2564 25.9725C18.8813 25.599 18.6706 25.0924 18.6706 24.5641C18.6706 24.0359 18.8813 23.5293 19.2564 23.1558C19.6314 22.7823 20.1401 22.5724 20.6706 22.5724H24.6706C25.201 22.5724 25.7097 22.7823 26.0848 23.1558C26.4599 23.5293 26.6706 24.0359 26.6706 24.5641C26.6706 25.0924 26.4599 25.599 26.0848 25.9725C25.7097 26.346 25.201 26.5558 24.6706 26.5558ZM24.6706 3.9834H20.6706C19.7865 3.9834 18.9387 4.33313 18.3136 4.95565C17.6884 5.57817 17.3372 6.42249 17.3372 7.30287V15.2696C17.3372 16.15 17.6884 16.9943 18.3136 17.6168C18.9387 18.2394 19.7865 18.5891 20.6706 18.5891H24.6706C25.5546 18.5891 26.4025 18.2394 27.0276 17.6168C27.6527 16.9943 28.0039 16.15 28.0039 15.2696V7.30287C28.0039 6.42249 27.6527 5.57817 27.0276 4.95565C26.4025 4.33313 25.5546 3.9834 24.6706 3.9834ZM26.6706 15.2696C26.6706 15.7978 26.4599 16.3044 26.0848 16.6779C25.7097 17.0515 25.201 17.2613 24.6706 17.2613H20.6706C20.1401 17.2613 19.6314 17.0515 19.2564 16.6779C18.8813 16.3044 18.6706 15.7978 18.6706 15.2696V7.30287C18.6706 6.77464 18.8813 6.26805 19.2564 5.89454C19.6314 5.52103 20.1401 5.31119 20.6706 5.31119H24.6706C25.201 5.31119 25.7097 5.52103 26.0848 5.89454C26.4599 6.26805 26.6706 6.77464 26.6706 7.30287V15.2696Z" fill="#F24E1E"/>
<path d="M4.00391 7.30287H2.00391H4.00391ZM11.3372 10.6223V12.6223V10.6223ZM7.33724 9.29456V11.2946V9.29456ZM7.33724 5.31119V3.31119V5.31119ZM11.3372 5.31119V3.31119V5.31119ZM4.00391 16.5974H2.00391H4.00391ZM13.3372 24.5641H15.3372H13.3372ZM7.33724 14.6057V12.6057V14.6057ZM13.3372 16.5974H15.3372H13.3372ZM24.6706 21.2447V23.2447V21.2447ZM20.6706 21.2447V23.2447V21.2447ZM20.6706 27.8836V29.8836V27.8836ZM24.6706 18.5891V16.5891V18.5891ZM24.6706 17.2613V19.2613V17.2613ZM20.6706 17.2613V19.2613V17.2613ZM20.6706 5.31119V3.31119V5.31119ZM11.3372 1.9834H7.33724V5.9834H11.3372V1.9834ZM7.33724 1.9834C5.92543 1.9834 4.56978 2.54183 3.56895 3.53849L6.39148 6.37281C6.64089 6.12443 6.98093 5.9834 7.33724 5.9834V1.9834ZM3.56895 3.53849C2.56784 4.53544 2.00391 5.88936 2.00391 7.30287H6.00391C6.00391 6.95562 6.14235 6.6209 6.39148 6.37281L3.56895 3.53849ZM2.00391 7.30287C2.00391 8.71638 2.56784 10.0703 3.56895 11.0673L6.39148 8.23294C6.14235 7.98484 6.00391 7.65012 6.00391 7.30287H2.00391ZM3.56895 11.0673C4.56978 12.0639 5.92543 12.6223 7.33724 12.6223V8.62234C6.98093 8.62234 6.64089 8.48131 6.39148 8.23294L3.56895 11.0673ZM7.33724 12.6223H11.3372V8.62234H7.33724V12.6223ZM11.3372 12.6223C12.749 12.6223 14.1047 12.0639 15.1055 11.0673L12.283 8.23294C12.0336 8.48131 11.6935 8.62234 11.3372 8.62234V12.6223ZM15.1055 11.0673C16.1066 10.0703 16.6706 8.71638 16.6706 7.30287H12.6706C12.6706 7.65012 12.5321 7.98484 12.283 8.23294L15.1055 11.0673ZM16.6706 7.30287C16.6706 5.88936 16.1066 4.53544 15.1055 3.53849L12.283 6.37281C12.5321 6.6209 12.6706 6.95562 12.6706 7.30287H16.6706ZM15.1055 3.53849C14.1047 2.54183 12.749 1.9834 11.3372 1.9834V5.9834C11.6935 5.9834 12.0336 6.12443 12.283 6.37281L15.1055 3.53849ZM11.3372 7.29456H7.33724V11.2946H11.3372V7.29456ZM7.33724 7.29456C7.33456 7.29456 7.33365 7.29342 7.33429 7.29405L4.51176 10.1284C5.26254 10.876 6.27906 11.2946 7.33724 11.2946V7.29456ZM7.33429 7.29405C7.33521 7.29496 7.33724 7.29797 7.33724 7.30287H3.33724C3.33724 8.36423 3.7607 9.38042 4.51176 10.1284L7.33429 7.29405ZM7.33724 7.30287C7.33724 7.30777 7.33521 7.31078 7.33429 7.3117L4.51176 4.47738C3.7607 5.22532 3.33724 6.24152 3.33724 7.30287H7.33724ZM7.33429 7.3117C7.33365 7.31233 7.33456 7.31119 7.33724 7.31119V3.31119C6.27906 3.31119 5.26254 3.72972 4.51176 4.47738L7.33429 7.3117ZM7.33724 7.31119H11.3372V3.31119H7.33724V7.31119ZM11.3372 7.31119C11.3399 7.31119 11.3408 7.31233 11.3402 7.3117L14.1627 4.47738C13.4119 3.72972 12.3954 3.31119 11.3372 3.31119V7.31119ZM11.3402 7.3117C11.3393 7.31078 11.3372 7.30777 11.3372 7.30287H15.3372C15.3372 6.24152 14.9138 5.22532 14.1627 4.47738L11.3402 7.3117ZM11.3372 7.30287C11.3372 7.29797 11.3393 7.29496 11.3402 7.29405L14.1627 10.1284C14.9138 9.38042 15.3372 8.36423 15.3372 7.30287H11.3372ZM11.3402 7.29405C11.3408 7.29342 11.3399 7.29456 11.3372 7.29456V11.2946C12.3954 11.2946 13.4119 10.876 14.1627 10.1284L11.3402 7.29405ZM11.3372 11.2779H7.33724V15.2779H11.3372V11.2779ZM7.33724 11.2779C5.92543 11.2779 4.56978 11.8364 3.56895 12.833L6.39148 15.6673C6.64089 15.419 6.98093 15.2779 7.33724 15.2779V11.2779ZM3.56895 12.833C2.56784 13.83 2.00391 15.1839 2.00391 16.5974H6.00391C6.00391 16.2501 6.14235 15.9154 6.39148 15.6673L3.56895 12.833ZM2.00391 16.5974V24.5641H6.00391V16.5974H2.00391ZM2.00391 24.5641C2.00391 25.9776 2.56784 27.3316 3.56895 28.3285L6.39148 25.4942C6.14235 25.2461 6.00391 24.9114 6.00391 24.5641H2.00391ZM3.56895 28.3285C4.56978 29.3252 5.92543 29.8836 7.33724 29.8836V25.8836C6.98093 25.8836 6.64089 25.7426 6.39148 25.4942L3.56895 28.3285ZM7.33724 29.8836H11.3372V25.8836H7.33724V29.8836ZM11.3372 29.8836C12.749 29.8836 14.1047 29.3252 15.1055 28.3285L12.283 25.4942C12.0336 25.7426 11.6935 25.8836 11.3372 25.8836V29.8836ZM15.1055 28.3285C16.1066 27.3316 16.6706 25.9776 16.6706 24.5641H12.6706C12.6706 24.9114 12.5321 25.2461 12.283 25.4942L15.1055 28.3285ZM16.6706 24.5641V16.5974H12.6706V24.5641H16.6706ZM16.6706 16.5974C16.6706 15.1839 16.1066 13.83 15.1055 12.833L12.283 15.6673C12.5321 15.9154 12.6706 16.2501 12.6706 16.5974H16.6706ZM15.1055 12.833C14.1047 11.8364 12.749 11.2779 11.3372 11.2779V15.2779C11.6935 15.2779 12.0336 15.419 12.283 15.6673L15.1055 12.833ZM11.3372 24.5641C11.3372 24.5592 11.3393 24.5562 11.3402 24.5553L14.1627 27.3896C14.9138 26.6417 15.3372 25.6255 15.3372 24.5641H11.3372ZM11.3402 24.5553C11.3408 24.5547 11.3399 24.5558 11.3372 24.5558V28.5558C12.3954 28.5558 13.4119 28.1373 14.1627 27.3896L11.3402 24.5553ZM11.3372 24.5558H7.33724V28.5558H11.3372V24.5558ZM7.33724 24.5558C7.33456 24.5558 7.33366 24.5547 7.33429 24.5553L4.51176 27.3896C5.26254 28.1373 6.27905 28.5558 7.33724 28.5558V24.5558ZM7.33429 24.5553C7.33521 24.5562 7.33724 24.5592 7.33724 24.5641H3.33724C3.33724 25.6255 3.7607 26.6417 4.51176 27.3896L7.33429 24.5553ZM7.33724 24.5641V16.5974H3.33724V24.5641H7.33724ZM7.33724 16.5974C7.33724 16.6023 7.33521 16.6053 7.33429 16.6062L4.51176 13.7719C3.7607 14.5198 3.33724 15.536 3.33724 16.5974H7.33724ZM7.33429 16.6062C7.33365 16.6069 7.33456 16.6057 7.33724 16.6057V12.6057C6.27906 12.6057 5.26254 13.0242 4.51176 13.7719L7.33429 16.6062ZM7.33724 16.6057H11.3372V12.6057H7.33724V16.6057ZM11.3372 16.6057C11.3399 16.6057 11.3408 16.6069 11.3402 16.6062L14.1627 13.7719C13.4119 13.0242 12.3954 12.6057 11.3372 12.6057V16.6057ZM11.3402 16.6062C11.3393 16.6053 11.3372 16.6023 11.3372 16.5974H15.3372C15.3372 15.536 14.9138 14.5198 14.1627 13.7719L11.3402 16.6062ZM11.3372 16.5974V24.5641H15.3372V16.5974H11.3372ZM24.6706 19.2447H20.6706V23.2447H24.6706V19.2447ZM20.6706 19.2447C19.2588 19.2447 17.9031 19.8031 16.9023 20.7998L19.7248 23.6341C19.9742 23.3857 20.3143 23.2447 20.6706 23.2447V19.2447ZM16.9023 20.7998C15.9012 21.7967 15.3372 23.1506 15.3372 24.5641H19.3372C19.3372 24.2169 19.4757 23.8822 19.7248 23.6341L16.9023 20.7998ZM15.3372 24.5641C15.3372 25.9776 15.9012 27.3316 16.9023 28.3285L19.7248 25.4942C19.4757 25.2461 19.3372 24.9114 19.3372 24.5641H15.3372ZM16.9023 28.3285C17.9031 29.3252 19.2588 29.8836 20.6706 29.8836V25.8836C20.3143 25.8836 19.9742 25.7426 19.7248 25.4942L16.9023 28.3285ZM20.6706 29.8836H24.6706V25.8836H20.6706V29.8836ZM24.6706 29.8836C26.0824 29.8836 27.438 29.3252 28.4389 28.3285L25.6163 25.4942C25.3669 25.7426 25.0269 25.8836 24.6706 25.8836V29.8836ZM28.4389 28.3285C29.44 27.3316 30.0039 25.9776 30.0039 24.5641H26.0039C26.0039 24.9114 25.8655 25.2461 25.6163 25.4942L28.4389 28.3285ZM30.0039 24.5641C30.0039 23.1506 29.44 21.7967 28.4389 20.7998L25.6163 23.6341C25.8655 23.8822 26.0039 24.2169 26.0039 24.5641H30.0039ZM28.4389 20.7998C27.438 19.8031 26.0824 19.2447 24.6706 19.2447V23.2447C25.0269 23.2447 25.3669 23.3857 25.6163 23.6341L28.4389 20.7998ZM24.6706 24.5558H20.6706V28.5558H24.6706V24.5558ZM20.6706 24.5558C20.6679 24.5558 20.667 24.5547 20.6676 24.5553L17.8451 27.3896C18.5959 28.1373 19.6124 28.5558 20.6706 28.5558V24.5558ZM20.6676 24.5553C20.6685 24.5562 20.6706 24.5592 20.6706 24.5641H16.6706C16.6706 25.6255 17.094 26.6417 17.8451 27.3896L20.6676 24.5553ZM20.6706 24.5641C20.6706 24.569 20.6685 24.572 20.6676 24.573L17.8451 21.7386C17.094 22.4866 16.6706 23.5028 16.6706 24.5641H20.6706ZM20.6676 24.573C20.667 24.5736 20.6679 24.5724 20.6706 24.5724V20.5724C19.6124 20.5724 18.5959 20.991 17.8451 21.7386L20.6676 24.573ZM20.6706 24.5724H24.6706V20.5724H20.6706V24.5724ZM24.6706 24.5724C24.6733 24.5724 24.6742 24.5736 24.6735 24.573L27.496 21.7386C26.7453 20.991 25.7288 20.5724 24.6706 20.5724V24.5724ZM24.6735 24.573C24.6726 24.572 24.6706 24.569 24.6706 24.5641H28.6706C28.6706 23.5028 28.2471 22.4866 27.496 21.7386L24.6735 24.573ZM24.6706 24.5641C24.6706 24.5592 24.6726 24.5562 24.6735 24.5553L27.496 27.3896C28.2471 26.6417 28.6706 25.6255 28.6706 24.5641H24.6706ZM24.6735 24.5553C24.6742 24.5547 24.6733 24.5558 24.6706 24.5558V28.5558C25.7288 28.5558 26.7453 28.1373 27.496 27.3896L24.6735 24.5553ZM24.6706 1.9834H20.6706V5.9834H24.6706V1.9834ZM20.6706 1.9834C19.2588 1.9834 17.9031 2.54183 16.9023 3.53849L19.7248 6.37281C19.9742 6.12443 20.3143 5.9834 20.6706 5.9834V1.9834ZM16.9023 3.53849C15.9012 4.53544 15.3372 5.88936 15.3372 7.30287H19.3372C19.3372 6.95562 19.4757 6.6209 19.7248 6.37281L16.9023 3.53849ZM15.3372 7.30287V15.2696H19.3372V7.30287H15.3372ZM15.3372 15.2696C15.3372 16.6831 15.9012 18.037 16.9023 19.034L19.7248 16.1997C19.4757 15.9516 19.3372 15.6169 19.3372 15.2696H15.3372ZM16.9023 19.034C17.9031 20.0307 19.2588 20.5891 20.6706 20.5891V16.5891C20.3143 16.5891 19.9742 16.448 19.7248 16.1997L16.9023 19.034ZM20.6706 20.5891H24.6706V16.5891H20.6706V20.5891ZM24.6706 20.5891C26.0824 20.5891 27.438 20.0307 28.4389 19.034L25.6163 16.1997C25.3669 16.448 25.0269 16.5891 24.6706 16.5891V20.5891ZM28.4389 19.034C29.44 18.037 30.0039 16.6831 30.0039 15.2696H26.0039C26.0039 15.6169 25.8655 15.9516 25.6163 16.1997L28.4389 19.034ZM30.0039 15.2696V7.30287H26.0039V15.2696H30.0039ZM30.0039 7.30287C30.0039 5.88936 29.44 4.53544 28.4389 3.53849L25.6163 6.37281C25.8655 6.6209 26.0039 6.95562 26.0039 7.30287H30.0039ZM28.4389 3.53849C27.438 2.54183 26.0824 1.9834 24.6706 1.9834V5.9834C25.0269 5.9834 25.3669 6.12443 25.6163 6.37281L28.4389 3.53849ZM24.6706 15.2696C24.6706 15.2647 24.6726 15.2617 24.6735 15.2608L27.496 18.0951C28.2471 17.3472 28.6706 16.331 28.6706 15.2696H24.6706ZM24.6735 15.2608C24.6742 15.2602 24.6733 15.2613 24.6706 15.2613V19.2613C25.7288 19.2613 26.7453 18.8428 27.496 18.0951L24.6735 15.2608ZM24.6706 15.2613H20.6706V19.2613H24.6706V15.2613ZM20.6706 15.2613C20.6679 15.2613 20.667 15.2602 20.6676 15.2608L17.8451 18.0951C18.5959 18.8428 19.6124 19.2613 20.6706 19.2613V15.2613ZM20.6676 15.2608C20.6685 15.2617 20.6706 15.2647 20.6706 15.2696H16.6706C16.6706 16.331 17.094 17.3472 17.8451 18.0951L20.6676 15.2608ZM20.6706 15.2696V7.30287H16.6706V15.2696H20.6706ZM20.6706 7.30287C20.6706 7.30777 20.6685 7.31078 20.6676 7.3117L17.8451 4.47738C17.094 5.22532 16.6706 6.24152 16.6706 7.30287H20.6706ZM20.6676 7.3117C20.667 7.31233 20.6679 7.31119 20.6706 7.31119V3.31119C19.6124 3.31119 18.5959 3.72972 17.8451 4.47738L20.6676 7.3117ZM20.6706 7.31119H24.6706V3.31119H20.6706V7.31119ZM24.6706 7.31119C24.6733 7.31119 24.6742 7.31233 24.6735 7.3117L27.496 4.47738C26.7453 3.72972 25.7288 3.31119 24.6706 3.31119V7.31119ZM24.6735 7.3117C24.6726 7.31078 24.6706 7.30778 24.6706 7.30287H28.6706C28.6706 6.24151 28.2471 5.22532 27.496 4.47738L24.6735 7.3117ZM24.6706 7.30287V15.2696H28.6706V7.30287H24.6706Z" fill="#F24E1E" mask="url(#path-1-inside-1_1217_19372)"/>
</svg>
