<svg width="18" height="18" viewBox="0 0 18 18" fill="none" xmlns="http://www.w3.org/2000/svg">
<path d="M15 9.75V15C15 15.3978 14.842 15.7794 14.5607 16.0607C14.2794 16.342 13.8978 16.5 13.5 16.5H3C2.60217 16.5 2.22064 16.342 1.93934 16.0607C1.65803 15.7794 1.5 15.3978 1.5 15L1.5 4.5C1.5 4.10218 1.65803 3.72064 1.93934 3.43934C2.22064 3.15804 2.60217 3 3 3L8.25 3" stroke="#161515" stroke-linecap="round" stroke-linejoin="round"/>
<path d="M16.1239 4.125C16.4222 3.82663 16.5898 3.42196 16.5898 3C16.5898 2.57804 16.4222 2.17337 16.1239 1.875C15.8255 1.57663 15.4208 1.40901 14.9989 1.40901C14.5769 1.40901 14.1722 1.57663 13.8739 1.875L6.74885 9L5.99885 12L8.99885 11.25L16.1239 4.125Z" stroke="#161515" stroke-linecap="round" stroke-linejoin="round"/>
</svg>
