<svg width="33" height="33" viewBox="0 0 33 33" fill="none" xmlns="http://www.w3.org/2000/svg">
<path d="M21.0039 28.5497H7.00391C6.73869 28.5497 6.48434 28.4447 6.2968 28.258C6.10926 28.0712 6.00391 27.8179 6.00391 27.5538V9.62865C6.00391 9.36454 6.10926 9.11124 6.2968 8.92449C6.48434 8.73773 6.73869 8.63281 7.00391 8.63281H17.0039L22.0039 13.612V27.5538C22.0039 27.8179 21.8986 28.0712 21.711 28.258C21.5235 28.4447 21.2691 28.5497 21.0039 28.5497Z" stroke="#F24E1E" stroke-width="2" stroke-linecap="round" stroke-linejoin="round"/>
<path d="M10.0039 8.63278V5.64526C10.0039 5.38114 10.1093 5.12785 10.2968 4.94109C10.4843 4.75433 10.7387 4.64941 11.0039 4.64941H21.0039L26.0039 9.62862V23.5704C26.0039 23.8345 25.8986 24.0878 25.711 24.2746C25.5235 24.4613 25.2691 24.5663 25.0039 24.5663H22.0039" stroke="#F24E1E" stroke-width="2" stroke-linecap="round" stroke-linejoin="round"/>
<path d="M11.0039 19.5869H17.0039" stroke="#F24E1E" stroke-width="2" stroke-linecap="round" stroke-linejoin="round"/>
<path d="M11.0039 23.5703H17.0039" stroke="#F24E1E" stroke-width="2" stroke-linecap="round" stroke-linejoin="round"/>
</svg>
