<svg width="33" height="34" viewBox="0 0 33 34" fill="none" xmlns="http://www.w3.org/2000/svg">
<path fill-rule="evenodd" clip-rule="evenodd" d="M15.8357 7.20751L11.9087 5.12621C11.7857 5.06048 11.6387 5.06048 11.5167 5.12621L1.86967 10.2548C1.73767 10.3255 1.65367 10.4599 1.64867 10.6073C1.64367 10.7557 1.71867 10.8951 1.84567 10.9738L5.52467 13.2493L1.86167 15.3007C1.73167 15.3734 1.65067 15.5089 1.64867 15.6572C1.64667 15.8046 1.72367 15.942 1.85167 16.0187L5.92667 18.4496V24.5989C5.92667 24.7513 6.01066 24.8907 6.14466 24.9634L15.6467 30.1139C15.7047 30.1457 15.7707 30.1647 15.8417 30.1657H15.8537C15.9207 30.1647 15.9837 30.1487 16.0397 30.1198L26.3927 24.9703C26.5337 24.8996 26.6237 24.7562 26.6237 24.5989V18.1558L30.2776 16.0038C30.4066 15.9271 30.4857 15.7877 30.4817 15.6373C30.4787 15.4879 30.3947 15.3515 30.2617 15.2808L26.2167 13.1258L29.9996 10.9818C30.1286 10.9091 30.2086 10.7746 30.2106 10.6282C30.2126 10.4808 30.1377 10.3444 30.0117 10.2677L20.6577 4.56355C20.5247 4.48289 20.3576 4.48289 20.2236 4.56256L15.8357 7.20751ZM25.7897 18.6467L20.4817 21.7737C20.3497 21.8514 20.1837 21.8504 20.0527 21.7697L15.8567 19.2104L11.9407 21.7637C11.8067 21.8504 11.6357 21.8534 11.4987 21.7717L6.75967 18.9465C6.75967 20.5747 6.75967 24.3519 6.75967 24.3519L15.4327 29.0523V20.7978C15.4327 20.5697 15.6187 20.3835 15.8487 20.3835C16.0787 20.3835 16.2657 20.5697 16.2657 20.7978V29.0792C18.1347 28.1501 25.7897 24.342 25.7897 24.342V18.6467ZM25.3647 13.6128L16.6577 18.7264C16.6627 18.7294 20.2737 20.9322 20.2737 20.9322L25.7926 17.6808C25.8176 16.5366 26.0116 16.1093 26.2066 16.186C26.3716 16.1203 26.5367 16.4181 26.5977 17.2068L29.2156 15.6642L25.3647 13.6128ZM15.0537 18.7414L6.34066 13.7442L2.89567 15.6742L11.7027 20.9262L15.0537 18.7414ZM7.17066 13.2622L15.8467 18.2385L24.5267 13.1417L15.8517 8.16552L7.17066 13.2622ZM14.9967 7.70344L6.81567 12.5074L6.34867 12.7812L2.89867 10.6481L11.7127 5.96271L14.9967 7.70344ZM16.6687 7.67556L20.4387 5.40404L28.9747 10.6083L25.3556 12.6587L16.6687 7.67556Z" stroke="#F24E1E"/>
</svg>
