<svg width="33" height="33" viewBox="0 0 33 33" fill="none" xmlns="http://www.w3.org/2000/svg">
<path d="M13.0049 23.1589H9.55486L8.48486 19.7034C8.45382 19.5952 8.38823 19.5 8.29802 19.4322C8.2078 19.3644 8.09787 19.3278 7.98486 19.3278C7.87186 19.3278 7.76193 19.3644 7.67171 19.4322C7.58149 19.5 7.5159 19.5952 7.48486 19.7034L6.45486 23.1589H3.00486C2.9009 23.1597 2.79976 23.1927 2.71552 23.2534C2.63128 23.3141 2.56813 23.3994 2.53486 23.4975C2.50078 23.5965 2.49886 23.7036 2.52937 23.8037C2.55989 23.9038 2.62129 23.9918 2.70486 24.0552L5.51486 26.1963L4.43486 29.6618C4.4059 29.763 4.40857 29.8705 4.44251 29.9701C4.47645 30.0698 4.54006 30.1567 4.62486 30.2195C4.70986 30.2833 4.81341 30.3178 4.91986 30.3178C5.02631 30.3178 5.12987 30.2833 5.21486 30.2195L8.00486 28.0884L10.7949 30.2095C10.8803 30.2762 10.9863 30.3114 11.0949 30.3091C11.1736 30.3096 11.2514 30.2915 11.3218 30.2564C11.3922 30.2212 11.4533 30.17 11.5001 30.107C11.5469 30.0439 11.5781 29.9706 11.591 29.8933C11.604 29.8159 11.5985 29.7366 11.5749 29.6618L10.4949 26.1963L13.3049 24.0552C13.3884 23.9918 13.4498 23.9038 13.4804 23.8037C13.5109 23.7036 13.5089 23.5965 13.4749 23.4975C13.4416 23.3994 13.3784 23.3141 13.2942 23.2534C13.21 23.1927 13.1088 23.1597 13.0049 23.1589ZM9.61486 25.6087C9.53267 25.6711 9.47144 25.7569 9.4393 25.8547C9.40715 25.9525 9.40561 26.0577 9.43486 26.1564L10.1549 28.4668L8.30486 27.0626C8.21832 26.998 8.11305 26.963 8.00486 26.963C7.89668 26.963 7.79141 26.998 7.70486 27.0626L5.85486 28.4668L6.57486 26.1564C6.60412 26.0577 6.60257 25.9525 6.57043 25.8547C6.53828 25.7569 6.47706 25.6711 6.39486 25.6087L4.48486 24.1548H6.82486C6.92813 24.1575 7.02972 24.1284 7.11567 24.0713C7.20162 24.0143 7.26771 23.9321 7.30486 23.8361L8.00486 21.5357L8.70486 23.8361C8.73694 23.9377 8.80086 24.0263 8.88725 24.0891C8.97364 24.1518 9.07795 24.1853 9.18486 24.1847H11.5249L9.61486 25.6087ZM29.4749 23.4975C29.4416 23.3994 29.3784 23.3141 29.2942 23.2534C29.21 23.1927 29.1088 23.1597 29.0049 23.1589H25.5549L24.4849 19.7034C24.4538 19.5952 24.3882 19.5 24.298 19.4322C24.2078 19.3644 24.0979 19.3278 23.9849 19.3278C23.8719 19.3278 23.7619 19.3644 23.6717 19.4322C23.5815 19.5 23.5159 19.5952 23.4849 19.7034L22.4149 23.1589H19.0049C18.9009 23.1597 18.7998 23.1927 18.7155 23.2534C18.6313 23.3141 18.5681 23.3994 18.5349 23.4975C18.5008 23.5965 18.4989 23.7036 18.5294 23.8037C18.5599 23.9038 18.6213 23.9918 18.7049 24.0552L21.5149 26.1963L20.4349 29.6618C20.4059 29.763 20.4086 29.8705 20.4425 29.9701C20.4764 30.0698 20.5401 30.1567 20.6249 30.2195C20.7099 30.2833 20.8134 30.3178 20.9199 30.3178C21.0263 30.3178 21.1299 30.2833 21.2149 30.2195L24.0049 28.0884L26.7949 30.2095C26.8803 30.2762 26.9863 30.3114 27.0949 30.3091C27.1736 30.3096 27.2514 30.2915 27.3218 30.2564C27.3922 30.2212 27.4533 30.17 27.5001 30.107C27.5469 30.0439 27.5781 29.9706 27.591 29.8933C27.604 29.8159 27.5985 29.7366 27.5749 29.6618L26.4949 26.1963L29.3049 24.0552C29.3884 23.9918 29.4498 23.9038 29.4804 23.8037C29.5109 23.7036 29.5089 23.5965 29.4749 23.4975ZM25.6149 25.6087C25.5327 25.6711 25.4714 25.7569 25.4393 25.8547C25.4072 25.9525 25.4056 26.0577 25.4349 26.1564L26.1549 28.4668L24.3049 27.0626C24.2183 26.998 24.113 26.963 24.0049 26.963C23.8967 26.963 23.7914 26.998 23.7049 27.0626L21.8549 28.4668L22.5749 26.1564C22.6041 26.0577 22.6026 25.9525 22.5704 25.8547C22.5383 25.7569 22.4771 25.6711 22.3949 25.6087L20.4849 24.1548H22.8249C22.9281 24.1575 23.0297 24.1284 23.1157 24.0713C23.2016 24.0143 23.2677 23.9321 23.3049 23.8361L24.0049 21.5656L24.7049 23.8361C24.7369 23.9377 24.8009 24.0263 24.8872 24.0891C24.9736 24.1518 25.0779 24.1853 25.1849 24.1847H27.5249L25.6149 25.6087ZM20.6449 19.3548C20.7454 19.3555 20.8436 19.3241 20.9249 19.2652C21.0132 19.2055 21.0796 19.1188 21.1139 19.0181C21.1482 18.9175 21.1485 18.8084 21.1149 18.7075L19.4549 13.3399L23.8049 10.0238C23.8938 9.96439 23.9612 9.87815 23.9972 9.77777C24.0332 9.67738 24.0359 9.56814 24.0049 9.46611C23.9716 9.36801 23.9084 9.28268 23.8242 9.222C23.74 9.16131 23.6388 9.12829 23.5349 9.12752H18.1449L16.4849 3.76989C16.4538 3.66168 16.3882 3.56649 16.298 3.49872C16.2078 3.43095 16.0979 3.39429 15.9849 3.39429C15.8719 3.39429 15.7619 3.43095 15.6717 3.49872C15.5815 3.56649 15.5159 3.66168 15.4849 3.76989L13.8649 9.12752H8.50486C8.39583 9.12185 8.28793 9.15188 8.19765 9.21302C8.10736 9.27416 8.03965 9.36305 8.00486 9.46611C7.97078 9.56506 7.96886 9.67219 7.99937 9.7723C8.02989 9.8724 8.09129 9.96039 8.17486 10.0238L12.5249 13.3399L10.8649 18.7075C10.8312 18.8084 10.8316 18.9175 10.8659 19.0181C10.9002 19.1188 10.9665 19.2055 11.0549 19.2652C11.1399 19.329 11.2434 19.3635 11.3499 19.3635C11.4563 19.3635 11.5599 19.329 11.6449 19.2652L16.0049 15.959L20.3349 19.2552C20.4241 19.322 20.5333 19.357 20.6449 19.3548ZM16.3049 14.9333C16.2183 14.8686 16.113 14.8337 16.0049 14.8337C15.8967 14.8337 15.7914 14.8686 15.7049 14.9333L12.3049 17.5125L13.6149 13.3001C13.6482 13.2026 13.6497 13.0971 13.6191 12.9988C13.5886 12.9004 13.5276 12.8141 13.4449 12.7524L10.0049 10.1234H14.2549C14.3618 10.124 14.4661 10.0905 14.5525 10.0278C14.6389 9.96504 14.7028 9.87639 14.7349 9.77482L16.0049 5.60224L17.2949 9.77482C17.3269 9.87639 17.3909 9.96504 17.4773 10.0278C17.5636 10.0905 17.6679 10.124 17.7749 10.1234H22.0049L18.5449 12.7524C18.4621 12.8141 18.4011 12.9004 18.3706 12.9988C18.34 13.0971 18.3415 13.2026 18.3749 13.3001L19.6849 17.5125L16.3049 14.9333Z" fill="#F24E1E" stroke="#F24E1E"/>
</svg>
