<svg width="33" height="33" viewBox="0 0 33 33" fill="none" xmlns="http://www.w3.org/2000/svg">
<path d="M12.0039 19.1182H20.0039" stroke="#F24E1E" stroke-width="2" stroke-linecap="round" stroke-linejoin="round"/>
<path d="M12.0039 15.135H20.0039" stroke="#F24E1E" stroke-width="2" stroke-linecap="round" stroke-linejoin="round"/>
<mask id="path-3-outside-1_1240_19366" maskUnits="userSpaceOnUse" x="4.00391" y="3.17651" width="24" height="27" fill="black">
<rect fill="white" x="4.00391" y="3.17651" width="24" height="27"/>
<path d="M20.0041 5.17651H25.0039C25.2691 5.17651 25.5235 5.28143 25.711 5.46819C25.8986 5.65495 26.0039 5.90824 26.0039 6.17236V27.085C26.0039 27.3492 25.8986 27.6024 25.711 27.7892C25.5235 27.976 25.2691 28.0809 25.0039 28.0809H7.00391C6.73869 28.0809 6.48434 27.976 6.2968 27.7892C6.10926 27.6024 6.00391 27.3492 6.00391 27.085V6.17236C6.00391 5.90824 6.10926 5.65495 6.2968 5.46819C6.48434 5.28143 6.73869 5.17651 7.00391 5.17651H12.0036"/>
</mask>
<path d="M20.0041 3.17651C18.8996 3.17651 18.0041 4.07194 18.0041 5.17651C18.0041 6.28108 18.8996 7.17651 20.0041 7.17651V3.17651ZM7.00391 5.17651V7.17651V5.17651ZM12.0036 7.17651C13.1082 7.17651 14.0036 6.28108 14.0036 5.17651C14.0036 4.07194 13.1082 3.17651 12.0036 3.17651V7.17651ZM20.0041 7.17651H25.0039V3.17651H20.0041V7.17651ZM25.0039 7.17651C24.7414 7.17651 24.4879 7.07274 24.2997 6.88535L27.1223 4.05103C26.559 3.49013 25.7969 3.17651 25.0039 3.17651V7.17651ZM24.2997 6.88535C24.1113 6.69767 24.0039 6.44137 24.0039 6.17236H28.0039C28.0039 5.37512 27.6858 4.61222 27.1223 4.05103L24.2997 6.88535ZM24.0039 6.17236V27.085H28.0039V6.17236H24.0039ZM24.0039 27.085C24.0039 26.816 24.1113 26.5597 24.2997 26.372L27.1223 29.2064C27.6858 28.6452 28.0039 27.8823 28.0039 27.085H24.0039ZM24.2997 26.372C24.4879 26.1847 24.7414 26.0809 25.0039 26.0809V30.0809C25.7969 30.0809 26.559 29.7673 27.1223 29.2064L24.2997 26.372ZM25.0039 26.0809H7.00391V30.0809H25.0039V26.0809ZM7.00391 26.0809C7.26644 26.0809 7.51989 26.1847 7.70806 26.372L4.88554 29.2064C5.44878 29.7673 6.21094 30.0809 7.00391 30.0809V26.0809ZM7.70806 26.372C7.89652 26.5597 8.00391 26.816 8.00391 27.085H4.00391C4.00391 27.8823 4.32201 28.6452 4.88554 29.2064L7.70806 26.372ZM8.00391 27.085V6.17236H4.00391V27.085H8.00391ZM8.00391 6.17236C8.00391 6.44137 7.89652 6.69768 7.70806 6.88535L4.88554 4.05103C4.32201 4.61221 4.00391 5.37511 4.00391 6.17236H8.00391ZM7.70806 6.88535C7.51989 7.07273 7.26644 7.17651 7.00391 7.17651V3.17651C6.21094 3.17651 5.44878 3.49013 4.88554 4.05103L7.70806 6.88535ZM7.00391 7.17651H12.0036V3.17651H7.00391V7.17651Z" fill="#F24E1E" mask="url(#path-3-outside-1_1240_19366)"/>
<path d="M10.0039 9.15987C10.0039 9.71215 10.4516 10.1599 11.0039 10.1599H21.0039C21.5562 10.1599 22.0039 9.71215 22.0039 9.15987V8.16402C22.0039 6.57689 21.3707 5.05561 20.2451 3.93461C19.1195 2.81376 17.5939 2.18481 16.0039 2.18481C14.4139 2.18481 12.8883 2.81376 11.7627 3.93461C10.6371 5.05561 10.0039 6.57689 10.0039 8.16402V9.15987Z" stroke="#F24E1E" stroke-width="2" stroke-linecap="round" stroke-linejoin="round"/>
</svg>
